<?xml version="1.0" encoding="UTF-8"?>
<svg version="1.1" viewBox="0 0 2000 2000" width="1280" height="1280" xmlns="http://www.w3.org/2000/svg">
<path transform="translate(0)" d="m0 0h2e3v2e3h-2e3z" fill="#FCFEFC"/>
<path transform="translate(959,290)" d="m0 0h50l28 2 25 3 28 5 36 9 36 12 25 10 18 8 19 10 20 11 19 12 12 8 14 10 13 10 14 12 13 11 9 9 8 7 11 11 7 8 2 4h2l9 11 8 10 5 5 10 14 4 7-4-2-9-11-12-13-19-19-8-7-16-13-16-12-10-7-17-11-24-14-21-11-30-13-28-10-23-7-30-7-24-4-24-3-34-2h-30l-37 3-33 5-27 6-28 8-29 10-27 12-28 14-25 15-19 13-12 9-14 11-14 12-8 7-15 14-3 4h-2l-2 4-9 9-3 5-5 5-12 14-10 14-14 20-16 27-12 23-12 27-11 30-8 28-7 30-2 10v6l10-24 8-17 10-19 13-21 9-14 14-19 10-13 14-15 7-8 29-29 11-9 7-6 3-3 7-5 1-2 5-3h2l1-3 6-3 2 3-5 3-4 4h-2v2l-27 27-7 8-13 17-16 24-10 18-8 15-11 27-9 27-6 24-5 29-2 20-1 17v23l3 32 4 24 5 14 7 10 7 7 14 8 9 3 7 1h10l72-7h13l19 3 13 4 17 8 11 8 10 9 8 8 7 9v2l-23 1h-35l-16 1-10 4-8 6-6 10-3 10 1 12 5 13 10 19 8 11 9 11 13 11 17 10 15 6 20 4 68 6 14 3 9 6 8 10 13 22 13 21 17 28 13 21 22 36 8 13 7 12 3 12-2 13-6 12-7 7-16 8h-12l-13-5-8-6-6-7-18-34-15-28-11-20-2-2h-6l-1 1v6l17 33 15 29 7 14 2 8-3 11-6 9-8 5-6 2-10-1-8-4-6-5-9-15-18-34-12-22-15-28-5-7v-2l-6 1-1 5 13 28 26 53 3 10v9l-5 12-8 7-11 5h-7l-11-4-10-9-8-16-15-37-17-40-3-5h-5l1 9 11 30 15 40 2 7v8l-5 10-7 6-5 2h-13l-9-4-6-4-7-8-9-20-15-39-1-1 1 8-3 10-6 9-9 7-13 4-40 7h-9l-10-4-8-7-5-7-2-6v-15l4-9 7-7 8-5-11 1-16 3-10 1-12-3-8-6-6-7-3-7-1-10 2-9 5-8 8-7 5-3 49-9 6-1h15l10 4 8 7 5 10 1 3v13l-5 10-5 5h-2l-1 3-7 4 13-1 4-1h17l8 3 10 8 3 5-3-10-6-11-8-7-5-2-1-3 2-7v-16l-3-9-6-9-8-7-8-5v-13l-3-12-4-9-3-5v-2h-2l-6-7-12-7-7-3 2-7v-17l-5-12-7-8-8-6-8-3-6-1h-10l-44 7-11 2-14 2-6-8-10-17-8-14-11-23-13-31-8-22-11-38-7-35-4-29-2-29v-55l2-29 4-29 7-34 8-30 11-32 12-28 14-29 13-23 14-22 14-20 12-15 9-11 9-10 7-8 9-10 15-15 11-9 13-12 17-13 19-14 20-13 24-14 27-14 24-11 35-13 34-10 32-7 32-5z" fill="#023779"/>
<path transform="translate(1340,868)" d="m0 0 3 3 2 21 1 13v53l-3 26-5 27-6 25-8 24-8 21-7 15-5 10-4 7 3 1 10-7 16-8 3-1v-2l7-4 5-4 4-2 1-2h3l1-3 6-4 11-9 5-4 2-3h2l2-4 15-14 7-8 9-10 1-2h2l2-4 12-16 7-10 9-14h2l1-5 12-21 11-25 6-15 8-22 1-2h2v10l-8 31-8 25-9 26-8 19-11 25-10 19-9 16-15 23-7 10-13 18-8 10-9 10-9 11-19 19-5 6-8 7-16 15-13 11-19 14-15 10-20 13-24 13-10 6-28 13-19 8-28 10-35 10-10-1-10-7-8-11-16-26-14-23-15-24-14-23-13-21-16-26-17-28-8-12-7-8-10-6-9-3-26-3-55-4-16-4-10-4-14-8-11-9-8-8-9-13-12-22-3-9 1-9 3-5 5-5 7-3h219l11 4 10 6 7 6 11 14 16 21 12 16 14 19 9 11 9 9 13 8 11 5 16 4h22l15-2 9-3 10-5 13-10 5-4 6-5 12-12 7-8 13-14 10-13 10-14 10-15 10-17 8-15 12-28 11-33 6-23 2-5z" fill="#00C2CF"/>
<path transform="translate(627,1068)" d="m0 0h8l12 5 9 8 5 11v14l-4 10-8 8-10 5 13-2h12l10 4 9 8 5 10 1 4v9l-3 8-6 9-13 8-47 9-30 6h-10l-8-3-10-8-6-12-1-11 3-10 3-6 5-4h2v-2l12-5 41-8-11 1-30 5h-8l-9-4-9-7-6-12-1-10 2-9 5-8 5-5 6-4 9-3 37-6z" fill="#00C2CF"/>
<path transform="translate(674,1188)" d="m0 0h15l10 4 8 7 5 10 1 3v13l-5 10-5 5h-2l-1 3-7 4 13-1 4-1h17l8 3 10 8 3 5 2 1 2 14-3 10-6 9-9 7-13 4-40 7h-9l-10-4-8-7-5-7-2-6v-15l4-9 7-7 8-5-11 1-16 3-10 1-12-3-8-6-6-7-3-7-1-10 2-9 5-8 8-7 5-3 49-9z" fill="#00C2CF"/>
<path transform="translate(1105,1422)" d="m0 0 6 1 11 9 16 16 8 7 16 16 8 7 8 8 8 7 17 16 8 7v-91l1-1h27l1 5v113l-1 35-5 1-9-7-7-7-8-7-16-16-8-7-9-9-8-7-11-11-2-1v-2l-4-2-10-10-8-7-1 60-1 31h-27l-1-1v-149z" fill="#02397A"/>
<path transform="translate(903,1421)" d="m0 0 4 1 5 6 9 20 32 72 14 31 8 19 1 6h-28l-5-8-4-9-70-1-3 9-5 9h-28l-1-3 7-17 17-38 13-29 12-27 13-29 5-9z" fill="#02387A"/>
<path transform="translate(764,1424)" d="m0 0h27l1 1v114l-2 10-4 9-6 8-9 7-10 4-9 2h-11l-13-4-10-6-9-10v-5l9-9 7-5 5 1 5 5 6 3 7 1 8-3 5-6 1-3 1-16z" fill="#023779"/>
<path transform="translate(1020,1424)" d="m0 0h27l1 7v104l-1 40-1 1h-27v-151z" fill="#02397B"/>
<path transform="translate(903,1475)" d="m0 0 4 4 17 41 4 9-1 4h-46l-1-3 7-16 11-26z" fill="#FDFFFD"/>
<path transform="translate(620,1645)" d="m0 0h13l8 4 6 8 1 3v12l-3 6-5 5-7 4-9 1-8-3-7-6-4-9v-8l4-9 8-7z" fill="#024280"/>
<path transform="translate(704,1644)" d="m0 0 4 2 16 15 10 10 1-27 7 1 1 2 1 40h-4l-8-7-16-15-3-3-1 25-7 1-1-1z" fill="#024C86"/>
<path transform="translate(1232,1644)" d="m0 0 4 2 7 7 8 7 11 11 1-26 1-1h5l1 1 1 38 1 4h-4l-8-7-17-16-2-2-1 25-7 1-1-1z" fill="#024B86"/>
<path transform="translate(1156,1644)" d="m0 0h3l9 20 8 18 1 6-6-1-3-3v-2l-16 1-6 2-6 3h-2l1-6 7-15 9-20z" fill="#024481"/>
<path transform="translate(623,1651)" d="m0 0h9l6 4 4 6v9l-4 7-6 4h-10l-6-4-4-6v-10l5-7z" fill="#FDFFFD"/>
<path transform="translate(885,1644)" d="m0 0h5l1 1v22l2 10 3 3h10l5-5 1-8v-22l1-1h5l1 1v28l-3 8-6 5-3 1h-12l-6-4-4-6-1-4v-28z" fill="#024280"/>
<path transform="translate(808,1645)" d="m0 0h12l7 4-2 4-3 1-3-2h-10l-1 1v6l8 4 10 4 3 4v7l-3 5-5 4h-13l-8-4-1-1v-5l7 1 3 2h10l3-3v-5l-9-3-8-4-4-4-1-7 3-6z" fill="#024682"/>
<path transform="translate(532,1645)" d="m0 0h12l8 5-2 4-5-1-2-1h-10l-6 4-3 5v10l4 6 4 3h12l4-2h3v5l-4 3-3 1h-13l-8-5-4-5-3-8 1-10 5-8 7-5z" fill="#024280"/>
<path transform="translate(1342,1645)" d="m0 0h12l6 4 1 4-4 1-4-2h-9l-7 4-3 5v9l3 6 5 4h12l4-2h3l-1 5-6 4h-13l-8-5-4-5-3-7v-7l4-10 7-6z" fill="#023E7E"/>
<path transform="translate(1413,1644)" d="m0 0h6l6 8 5 10 2 1 2-6 7-11 2-2 5 1-2 6-10 17-1 3-1 16-4 1-3-3v-11l-3-9-6-11-5-8z" fill="#02407F"/>
<path transform="translate(1056,1645)" d="m0 0h31l1 4-4 2-8 1-1 35-6 1-1-1v-36h-9l-3-1-1-4z" fill="#024884"/>
<path transform="translate(978,1644)" d="m0 0 6 1 1 34 1 2h16l4 1-1 4-8 1h-20v-18z" fill="#024582"/>
<path transform="translate(1157,1654)" d="m0 0 2 3 7 18-1 2h-15l1-7 5-12z" fill="#FDFFFD"/>
</svg>
